# xmcd
#
# Track frame offsets:
#	150
#	14128
#	27647
#	51134
#	64278
#	75417
#	96172
#	107851
#	119286
#	135273
#	145617
#	156264
#	164471
#	176654
#	191182
#	205644
#	218827
#	230662
#	247237
#	260364
#
# Disc length: 3672 seconds
#
# Revision: 1
# Processed by: cddbd v1.5.2PL0 Copyright (c) Steve Scherf et al.
# Submitted via: audiograbber 1.83.01
#
DISCID=260e5614
DTITLE=Davidson, Frankie - The Spirit of Australia
DYEAR=1900
DGENRE=
TTITLE0=I am you are we are Australian
TTITLE1=Spirit of Australia
TTITLE2=The Band Played Waltzing Matilda
TTITLE3=The Melbourne Cup
TTITLE4=The Goondawindi Grey
TTITLE5=Santa Never Made it it Darwin
TTITLE6=I love a Sunburnt Football
TTITLE7=I Made 100 in the Backyard at Mum's
TTITLE8=Not Bloody Golf Again
TTITLE9=Australian Born Australian Bred
TTITLE10=The Girl Behind the Bar
TTITLE11=Beer, Beer, Beautiful Beer
TTITLE12=The Aussie BBQ Song
TTITLE13=50 Million Blowflies Can't Be Wrong
TTITLE14=Toss Another Shrimp on the Barbie
TTITLE15=The Man From Snowy River
TTITLE16=Cliffy Young Song
TTITLE17=Arnehm. KIingdom of the Aboriginie
TTITLE18=If J.O.K Was Here Today
TTITLE19=Aussie Music Tribute 60's Version
EXTD=
EXTT0=
EXTT1=
EXTT2=
EXTT3=
EXTT4=
EXTT5=
EXTT6=
EXTT7=
EXTT8=
EXTT9=
EXTT10=
EXTT11=
EXTT12=
EXTT13=
EXTT14=
EXTT15=
EXTT16=
EXTT17=
EXTT18=
EXTT19=
PLAYORDER=
